<svg width="153" height="55" viewBox="0 0 153 55" fill="none" xmlns="http://www.w3.org/2000/svg">
<path d="M16.2184 34.3672C13.8718 33.5672 11.7384 32.7672 9.81842 31.9672C7.89842 31.1139 6.24509 30.1005 4.85842 28.9272C3.47176 27.7539 2.37842 26.3672 1.57842 24.7672C0.831756 23.1139 0.458423 21.1139 0.458423 18.7672C0.458423 14.2339 2.19176 10.6072 5.65842 7.88721C9.17842 5.16721 14.0851 3.80721 20.3784 3.80721C22.6718 3.80721 24.8051 3.96721 26.7784 4.28721C28.7518 4.60722 30.4318 5.11388 31.8184 5.80721C33.2584 6.44721 34.3784 7.30055 35.1784 8.36721C35.9784 9.38055 36.3784 10.5805 36.3784 11.9672C36.3784 13.3539 36.0584 14.5539 35.4184 15.5672C34.7784 16.5272 34.0051 17.3539 33.0984 18.0472C31.9251 17.3005 30.3518 16.6605 28.3784 16.1272C26.4051 15.5405 24.2451 15.2472 21.8984 15.2472C19.4984 15.2472 17.7384 15.5939 16.6184 16.2872C15.4984 16.9272 14.9384 17.7539 14.9384 18.7672C14.9384 19.5672 15.2851 20.2339 15.9784 20.7672C16.6718 21.2472 17.7118 21.7005 19.0984 22.1272L23.3384 23.4872C28.3518 25.0872 32.1918 27.1405 34.8584 29.6472C37.5784 32.1005 38.9384 35.4605 38.9384 39.7272C38.9384 44.2605 37.1518 47.9405 33.5784 50.7672C30.0051 53.5406 24.7518 54.9272 17.8184 54.9272C15.3651 54.9272 13.0718 54.7139 10.9384 54.2872C8.85842 53.9139 7.01842 53.3539 5.41842 52.6072C3.87176 51.8072 2.64509 50.8472 1.73842 49.7272C0.88509 48.5539 0.458423 47.2205 0.458423 45.7272C0.458423 44.1805 0.911756 42.8739 1.81842 41.8072C2.72509 40.6872 3.71176 39.8339 4.77842 39.2472C6.27176 40.4205 8.08509 41.4339 10.2184 42.2872C12.4051 43.1405 14.7784 43.5672 17.3384 43.5672C19.9518 43.5672 21.7918 43.1672 22.8584 42.3672C23.9251 41.5672 24.4584 40.6339 24.4584 39.5672C24.4584 38.5005 24.0318 37.7005 23.1784 37.1672C22.3251 36.5805 21.1251 36.0205 19.5784 35.4872L16.2184 34.3672ZM62.9022 45.0072C63.8088 45.0072 64.7955 44.9272 65.8622 44.7672C66.9822 44.5539 67.8088 44.2872 68.3422 43.9672V37.5672L62.5822 38.0472C61.0888 38.1539 59.8622 38.4739 58.9022 39.0072C57.9422 39.5405 57.4622 40.3405 57.4622 41.4072C57.4622 42.4739 57.8622 43.3539 58.6622 44.0472C59.5155 44.6872 60.9288 45.0072 62.9022 45.0072ZM62.2622 13.5672C65.1422 13.5672 67.7555 13.8605 70.1022 14.4472C72.5022 15.0339 74.5288 15.9405 76.1822 17.1672C77.8888 18.3405 79.1955 19.8605 80.1022 21.7272C81.0088 23.5405 81.4622 25.7005 81.4622 28.2072V46.1272C81.4622 47.5139 81.0622 48.6605 80.2622 49.5672C79.5155 50.4206 78.6088 51.1672 77.5422 51.8072C74.0755 53.8872 69.1955 54.9272 62.9022 54.9272C60.0755 54.9272 57.5155 54.6606 55.2222 54.1272C52.9822 53.5939 51.0355 52.7939 49.3822 51.7272C47.7822 50.6605 46.5288 49.3005 45.6222 47.6472C44.7688 45.9939 44.3422 44.0739 44.3422 41.8872C44.3422 38.2072 45.4355 35.3805 47.6222 33.4072C49.8088 31.4339 53.1955 30.2072 57.7822 29.7272L68.2622 28.6072V28.0472C68.2622 26.5005 67.5688 25.4072 66.1822 24.7672C64.8488 24.0739 62.9022 23.7272 60.3422 23.7272C58.3155 23.7272 56.3422 23.9405 54.4222 24.3672C52.5022 24.7939 50.7688 25.3272 49.2222 25.9672C48.5288 25.4872 47.9422 24.7672 47.4622 23.8072C46.9822 22.7939 46.7422 21.7539 46.7422 20.6872C46.7422 19.3005 47.0622 18.2072 47.7022 17.4072C48.3955 16.5539 49.4355 15.8339 50.8222 15.2472C52.3688 14.6605 54.1822 14.2339 56.2622 13.9672C58.3955 13.7005 60.3955 13.5672 62.2622 13.5672ZM103.618 53.5672C103.031 53.6739 102.151 53.8072 100.978 53.9672C99.8578 54.1806 98.7111 54.2872 97.5378 54.2872C96.3645 54.2872 95.2978 54.2072 94.3378 54.0472C93.4311 53.8872 92.6578 53.5672 92.0178 53.0872C91.3778 52.6072 90.8711 51.9672 90.4978 51.1672C90.1778 50.3139 90.0178 49.2205 90.0178 47.8872V1.48722C90.6045 1.38055 91.4578 1.24721 92.5778 1.08722C93.7511 0.873883 94.9245 0.767216 96.0978 0.767216C97.2711 0.767216 98.3111 0.847215 99.2178 1.00721C100.178 1.16721 100.978 1.48721 101.618 1.96721C102.258 2.44721 102.738 3.11388 103.058 3.96721C103.431 4.76722 103.618 5.83388 103.618 7.16721V53.5672ZM152.44 34.2072C152.44 37.5139 151.933 40.4739 150.92 43.0872C149.906 45.6472 148.466 47.8072 146.6 49.5672C144.786 51.3272 142.6 52.6606 140.04 53.5672C137.48 54.4739 134.626 54.9272 131.48 54.9272C128.333 54.9272 125.48 54.4472 122.92 53.4872C120.36 52.5272 118.146 51.1672 116.28 49.4072C114.466 47.5939 113.053 45.4072 112.04 42.8472C111.026 40.2872 110.52 37.4072 110.52 34.2072C110.52 31.0605 111.026 28.2072 112.04 25.6472C113.053 23.0872 114.466 20.9272 116.28 19.1672C118.146 17.3539 120.36 15.9672 122.92 15.0072C125.48 14.0472 128.333 13.5672 131.48 13.5672C134.626 13.5672 137.48 14.0739 140.04 15.0872C142.6 16.0472 144.786 17.4339 146.6 19.2472C148.466 21.0072 149.906 23.1672 150.92 25.7272C151.933 28.2872 152.44 31.1139 152.44 34.2072ZM124.44 34.2072C124.44 37.4605 125.053 39.9672 126.28 41.7272C127.56 43.4339 129.32 44.2872 131.56 44.2872C133.8 44.2872 135.506 43.4072 136.68 41.6472C137.906 39.8872 138.52 37.4072 138.52 34.2072C138.52 31.0072 137.906 28.5539 136.68 26.8472C135.453 25.0872 133.72 24.2072 131.48 24.2072C129.24 24.2072 127.506 25.0872 126.28 26.8472C125.053 28.5539 124.44 31.0072 124.44 34.2072Z" fill="#D4ED31"/>
</svg>
